<svg width="138" height="64" viewBox="0 0 138 64" fill="none" xmlns="http://www.w3.org/2000/svg">
<path d="M0 56V7.33153H12.6864L24.6535 36.2409H25.8306L37.7324 7.33153H50.615V49V55.7348H41.3944V14.4263L42.5715 14.5589L29.6889 45.8552H20.2068L7.25874 14.5589L8.50122 14.4263L8.5 56H0Z" fill="#D8D8D5"/>
<path d="M94.9488 47.2476V50.0794V56H112.235C116.551 56 120.322 55.3148 123.548 53.9445C126.774 52.5742 129.455 50.7397 131.591 48.4411C133.728 46.1425 135.319 43.5787 136.365 40.7497C137.455 37.9206 138 35.0474 138 32.1299V30.6712C138 27.6211 137.455 24.6816 136.365 21.8525C135.319 18.9792 133.728 16.4375 131.591 14.2273C129.455 11.9729 126.774 10.2048 123.548 8.92287C120.322 7.64096 116.551 7 112.235 7H90.2567L98.9223 15.7526L112.823 15.7524C115.308 15.7524 117.51 16.106 119.428 16.8133C121.39 17.5205 123.047 18.5593 124.398 19.9296C125.75 21.3 126.774 22.9576 127.472 24.9026C128.213 26.8033 128.583 28.9693 128.583 31.4005C128.583 33.7433 128.213 35.8872 127.472 37.8322C126.774 39.733 125.75 41.3906 124.398 42.8051C123.047 44.2197 121.39 45.3248 119.428 46.1204C117.51 46.8719 115.308 47.2476 112.823 47.2476H103.886L103.757 30H94.7055L94.9488 47.2476Z" fill="#D8D8D5"/>
<path d="M50.615 49V55.7348H51.9711L53.3272 54.7348L60.0101 49.5L71.2256 15.2219H68.3024L71.7029 13.7632L71.2256 15.2219H73.6374L73.1415 13.7632L76.4766 15.2219H73.6374L87.5 56L94.9488 56V50.0794L80.1387 7.33153H64.9673L50.615 49Z" fill="#D8D8D5"/>
<path d="M71.7029 13.7632L68.3024 15.2219H71.2256L71.7029 13.7632Z" fill="#D8D8D5"/>
<path d="M76.4766 15.2219L73.1415 13.7632L73.6374 15.2219H76.4766Z" fill="#D8D8D5"/>
<circle cx="46" cy="57" r="5.5" fill="#282524" stroke="#282524" stroke-width="3"/>
<circle cx="46" cy="7" r="5.5" fill="#282524" stroke="#282524" stroke-width="3"/>
<circle cx="46" cy="7" r="4.5" fill="#282524" stroke="#BE1E1E" stroke-width="3"/>
<circle cx="99.5" cy="29.5" r="4.5" fill="#282524"/>
<circle cx="99.5" cy="29.5" r="4.5" stroke="#BE1E1E"/>
<path d="M49 55.5C65.5 42 76.5 36.5 99.5 29.5" stroke="#282524" stroke-width="6"/>
<path d="M49 55.5C65.5 42 76.5 36.5 99.5 29.5" stroke="#BE1E1E" stroke-width="4"/>
<path d="M46 10.5C46 14.2742 46 49.9839 46 52.5" stroke="#BE1E1E" stroke-width="5"/>
<circle cx="46" cy="57" r="4.5" fill="#282524" stroke="#BE1E1E" stroke-width="3"/>
<circle cx="99.5" cy="29.5" r="3.5" fill="#BE1E1E"/>
<circle cx="99.5" cy="29.5" r="3.5" stroke="#BE1E1E"/>
</svg>
